<svg width="72" height="29" viewBox="0 0 72 29" fill="none" xmlns="http://www.w3.org/2000/svg">
  <path d="M3.21979 28.5C2.89979 28.5 2.73979 28.3533 2.73979 28.06L0.779785 1.02C0.779785 0.67333 0.939785 0.499996 1.25979 0.499996L6.93979 0.499996C7.25979 0.499996 7.41979 0.646663 7.41979 0.939998L7.53979 14.1C7.53979 14.18 7.56645 14.22 7.61979 14.22C7.69979 14.22 7.75312 14.18 7.77978 14.1L11.1398 0.939998C11.2198 0.646663 11.4065 0.499996 11.6998 0.499996L16.2198 0.499996C16.5131 0.499996 16.6598 0.646663 16.6598 0.939998L16.9798 14.1C17.0065 14.18 17.0465 14.22 17.0998 14.22C17.1531 14.22 17.1798 14.18 17.1798 14.1L20.4198 0.939998C20.4465 0.646663 20.6065 0.499996 20.8998 0.499996L26.4998 0.499996C26.8198 0.499996 26.9398 0.67333 26.8598 1.02L18.5398 28.06C18.4598 28.3533 18.2731 28.5 17.9798 28.5H13.0198C12.7265 28.5 12.5798 28.3533 12.5798 28.06L12.2998 14.38C12.2998 14.3 12.2598 14.26 12.1798 14.26C12.1265 14.26 12.0865 14.3 12.0598 14.38L8.69978 28.06C8.61978 28.3533 8.44645 28.5 8.17979 28.5H3.21979Z" fill="black"/>
  <path d="M33.8823 28.5C33.589 28.5 33.4423 28.3533 33.4423 28.06L33.3623 24.58C33.389 24.5267 33.3756 24.4867 33.3223 24.46C33.269 24.4067 33.2156 24.38 33.1623 24.38H28.9623C28.8023 24.38 28.7223 24.4467 28.7223 24.58L27.8423 28.06C27.7623 28.3533 27.5756 28.5 27.2823 28.5H21.7623C21.4423 28.5 21.3356 28.3267 21.4423 27.98L30.3623 0.939998C30.4423 0.646663 30.629 0.499996 30.9223 0.499996L37.2423 0.499996C37.5623 0.499996 37.7223 0.646663 37.7223 0.939998L39.9623 27.98V28.1C39.9623 28.3667 39.8156 28.5 39.5223 28.5L33.8823 28.5ZM30.2423 19.06C30.2423 19.1933 30.2823 19.26 30.3623 19.26H32.9623C33.0956 19.26 33.1623 19.1933 33.1623 19.06L32.8823 9.94C32.8823 9.83333 32.8556 9.78 32.8023 9.78C32.749 9.78 32.6956 9.83333 32.6423 9.94L30.2423 19.06Z" fill="black"/>
  <path d="M41.7679 28.5C41.5812 28.5 41.4612 28.4467 41.4079 28.34C41.3812 28.2333 41.4079 28.1 41.4879 27.94L48.3279 14.62C48.3546 14.54 48.3546 14.46 48.3279 14.38L44.7679 1.06L44.7279 0.899996C44.7279 0.793331 44.7679 0.699998 44.8479 0.619997C44.9546 0.539996 45.0746 0.499996 45.2079 0.499996L50.8079 0.499996C51.0479 0.499996 51.2079 0.633329 51.2879 0.899996L52.5679 7.5C52.5679 7.60666 52.5946 7.66 52.6479 7.66C52.7279 7.66 52.7812 7.60666 52.8079 7.5L55.6479 0.899996C55.7812 0.633329 55.9679 0.499996 56.2079 0.499996L61.8079 0.499996C61.9946 0.499996 62.1012 0.553329 62.1279 0.659996C62.1812 0.766663 62.1679 0.899996 62.0879 1.06L55.2479 14.38L55.2079 14.62L58.7679 27.94L58.8079 28.1C58.8079 28.3667 58.6612 28.5 58.3679 28.5L52.8079 28.5C52.5679 28.5 52.4212 28.3667 52.3679 28.1L51.0479 21.54C51.0479 21.4333 51.0212 21.3933 50.9679 21.42C50.9146 21.42 50.8746 21.46 50.8479 21.54L47.8879 28.1C47.8079 28.3667 47.6212 28.5 47.3279 28.5H41.7679Z" fill="black"/>
  <path d="M64.2323 18.74C64.099 18.74 63.9923 18.7 63.9123 18.62C63.8323 18.5133 63.8056 18.3933 63.8323 18.26L65.2323 0.979998C65.2856 0.659997 65.459 0.499996 65.7523 0.499996L71.2723 0.499996C71.5923 0.499996 71.7256 0.659997 71.6723 0.979998L68.9123 18.26C68.8856 18.3933 68.819 18.5133 68.7123 18.62C68.6323 18.7 68.5256 18.74 68.3923 18.74H64.2323ZM65.1523 28.46C64.2723 28.46 63.5523 28.18 62.9923 27.62C62.459 27.06 62.1923 26.34 62.1923 25.46C62.1923 24.34 62.5523 23.4067 63.2723 22.66C64.019 21.9133 64.939 21.54 66.0323 21.54C66.8856 21.54 67.579 21.8067 68.1123 22.34C68.6723 22.8733 68.9523 23.5667 68.9523 24.42C68.9523 25.5667 68.5789 26.5267 67.8323 27.3C67.1123 28.0733 66.219 28.46 65.1523 28.46Z" fill="black"/>
</svg>
